<?xml version="1.0" encoding="UTF-8" standalone="no"?>
<!-- Creator: fig2dev Version 3.2 Patchlevel 5-alpha4 -->

<!-- CreationDate: Wed Oct 19 16:35:26 2005 -->

<!-- Magnification: 1.050 -->

<svg
   xmlns:dc="http://purl.org/dc/elements/1.1/"
   xmlns:cc="http://creativecommons.org/ns#"
   xmlns:rdf="http://www.w3.org/1999/02/22-rdf-syntax-ns#"
   xmlns:svg="http://www.w3.org/2000/svg"
   xmlns="http://www.w3.org/2000/svg"
   xmlns:sodipodi="http://sodipodi.sourceforge.net/DTD/sodipodi-0.dtd"
   xmlns:inkscape="http://www.inkscape.org/namespaces/inkscape"
   width="6.4in"
   height="5.1in"
   viewBox="1732 2232 7719 6165"
   id="svg3067"
   version="1.1"
   inkscape:version="0.48.2 r9819"
   sodipodi:docname="Spannungsteiler_belastet.svg">
  <metadata
     id="metadata3147">
    <rdf:RDF>
      <cc:Work
         rdf:about="">
        <dc:format>image/svg+xml</dc:format>
        <dc:type
           rdf:resource="http://purl.org/dc/dcmitype/StillImage" />
      </cc:Work>
    </rdf:RDF>
  </metadata>
  <defs
     id="defs3145">
    <marker
       inkscape:stockid="TriangleOutL"
       orient="auto"
       refY="0.0"
       refX="0.0"
       id="TriangleOutL"
       style="overflow:visible">
      <path
         id="path4253"
         d="M 5.77,0.0 L -2.88,5.0 L -2.88,-5.0 L 5.77,0.0 z "
         style="fill-rule:evenodd;stroke:#000000;stroke-width:1.0pt;marker-start:none"
         transform="scale(0.8)" />
    </marker>
    <marker
       inkscape:stockid="TriangleOutM"
       orient="auto"
       refY="0.0"
       refX="0.0"
       id="TriangleOutM"
       style="overflow:visible">
      <path
         id="path4256"
         d="M 5.77,0.0 L -2.88,5.0 L -2.88,-5.0 L 5.77,0.0 z "
         style="fill-rule:evenodd;stroke:#000000;stroke-width:1.0pt;marker-start:none"
         transform="scale(0.4)" />
    </marker>
    <marker
       inkscape:stockid="Arrow2Lend"
       orient="auto"
       refY="0.0"
       refX="0.0"
       id="Arrow2Lend"
       style="overflow:visible;">
      <path
         id="path4131"
         style="font-size:12.0;fill-rule:evenodd;stroke-width:0.62500000;stroke-linejoin:round;"
         d="M 8.7185878,4.0337352 L -2.2072895,0.016013256 L 8.7185884,-4.0017078 C 6.9730900,-1.6296469 6.9831476,1.6157441 8.7185878,4.0337352 z "
         transform="scale(1.1) rotate(180) translate(1,0)" />
    </marker>
    <marker
       inkscape:stockid="Arrow1Lend"
       orient="auto"
       refY="0.0"
       refX="0.0"
       id="Arrow1Lend"
       style="overflow:visible;">
      <path
         id="path4113"
         d="M 0.0,0.0 L 5.0,-5.0 L -12.5,0.0 L 5.0,5.0 L 0.0,0.0 z "
         style="fill-rule:evenodd;stroke:#000000;stroke-width:1.0pt;marker-start:none;"
         transform="scale(0.8) rotate(180) translate(12.5,0)" />
    </marker>
  </defs>
  <sodipodi:namedview
     pagecolor="#ffffff"
     bordercolor="#666666"
     borderopacity="1"
     objecttolerance="10"
     gridtolerance="10"
     guidetolerance="10"
     inkscape:pageopacity="0"
     inkscape:pageshadow="2"
     inkscape:window-width="1479"
     inkscape:window-height="999"
     id="namedview3143"
     showgrid="false"
     inkscape:zoom="1"
     inkscape:cx="340.07474"
     inkscape:cy="171.26667"
     inkscape:window-x="280"
     inkscape:window-y="0"
     inkscape:window-maximized="0"
     inkscape:current-layer="g3069" />
  <g
     style="stroke-width:.025in; stroke:black; fill:none"
     id="g3069">
    <!-- Text -->
    <text
       x="4346"
       y="7027"
       fill="#000000"
       font-family="Times"
       font-style="normal"
       font-weight="normal"
       font-size="227"
       text-anchor="start"
       id="text3071">
2</text>
    <!-- Text -->
    <text
       x="4062"
       y="6897"
       fill="#000000"
       font-family="Times"
       font-style="italic"
       font-weight="normal"
       font-size="303"
       text-anchor="start"
       id="text3073">
R</text>
    <!-- Text -->
    <text
       x="4346"
       y="3956"
       fill="#000000"
       font-family="Times"
       font-style="normal"
       font-weight="normal"
       font-size="227"
       text-anchor="start"
       id="text3075">
1</text>
    <!-- Text -->
    <text
       x="4062"
       y="3826"
       fill="#000000"
       font-family="Times"
       font-style="italic"
       font-weight="normal"
       font-size="303"
       text-anchor="start"
       id="text3077">
R</text>
    <!-- Text -->
    <text
       x="6944"
       y="7027"
       fill="#000000"
       font-family="Times"
       font-style="normal"
       font-weight="normal"
       font-size="227"
       text-anchor="start"
       id="text3079">
v</text>
    <!-- Text -->
    <text
       x="6661"
       y="6897"
       fill="#000000"
       font-family="Times"
       font-style="italic"
       font-weight="normal"
       font-size="303"
       text-anchor="start"
       id="text3081">
R</text>
    <!-- Text -->
    <text
       x="9291"
       y="3956"
       fill="#000000"
       font-family="Times"
       font-style="normal"
       font-weight="normal"
       font-size="227"
       text-anchor="start"
       id="text3083">
1</text>
    <!-- Text -->
    <text
       x="8976"
       y="3826"
       fill="#000000"
       font-family="Times"
       font-style="italic"
       font-weight="normal"
       font-size="303"
       text-anchor="start"
       id="text3085">
U</text>
    <!-- Text -->
    <text
       x="9291"
       y="7027"
       fill="#000000"
       font-family="Times"
       font-style="normal"
       font-weight="normal"
       font-size="227"
       text-anchor="start"
       id="text3087">
2</text>
    <!-- Text -->
    <text
       x="8976"
       y="6897"
       fill="#000000"
       font-family="Times"
       font-style="italic"
       font-weight="normal"
       font-size="303"
       text-anchor="start"
       id="text3089">
U</text>
    <!-- Circle -->
    <circle
       cx="5055"
       cy="5338"
       r="94"
       style="fill:#000000;stroke:#000000;stroke-width:48;"
       id="circle3091" />
    <!-- Circle -->
    <circle
       cx="5055"
       cy="2362"
       r="94"
       style="fill:#000000;stroke:#000000;stroke-width:48;"
       id="circle3093" />
    <!-- Circle -->
    <circle
       cx="5055"
       cy="8267"
       r="94"
       style="fill:#000000;stroke:#000000;stroke-width:48;"
       id="circle3095" />
    <!-- Circle -->
    <circle
       cx="2267"
       cy="2362"
       r="94"
       style="stroke:#000000;stroke-width:48;"
       id="circle3097" />
    <!-- Circle -->
    <circle
       cx="2267"
       cy="8267"
       r="94"
       style="stroke:#000000;stroke-width:48;"
       id="circle3099" />
    <!-- Circle -->
    <circle
       cx="8598"
       cy="2362"
       r="94"
       style="stroke:#000000;stroke-width:48;"
       id="circle3101" />
    <!-- Circle -->
    <circle
       cx="8598"
       cy="5338"
       r="94"
       style="stroke:#000000;stroke-width:48;"
       id="circle3103" />
    <!-- Circle -->
    <circle
       cx="8598"
       cy="8267"
       r="94"
       style="stroke:#000000;stroke-width:48;"
       id="circle3105" />
    <!-- Line -->
    <polyline
       points="5055,4724 5055,5905 "
       style="stroke:#000000;stroke-width:48; stroke-linejoin:miter; stroke-linecap:butt; "
       id="polyline3107" />
    <!-- Line -->
    <polyline
       points="4724,5905 5433,5905 5433,7795 4724,7795 4724,5905 "
       style="stroke:#000000;stroke-width:48; stroke-linejoin:miter; stroke-linecap:butt; "
       id="polyline3109" />
    <!-- Line -->
    <polyline
       points="7322,5905 8031,5905 8031,7795 7322,7795 7322,5905 "
       style="stroke:#000000;stroke-width:48; stroke-linejoin:miter; stroke-linecap:butt; "
       id="polyline3111" />
    <!-- Line -->
    <polyline
       points="4724,2834 5433,2834 5433,4724 4724,4724 4724,2834 "
       style="stroke:#000000;stroke-width:48; stroke-linejoin:miter; stroke-linecap:butt; "
       id="polyline3113" />
    <!-- Line -->
    <polyline
       points="7653,7795 7653,8267 2362,8267 "
       style="stroke:#000000;stroke-width:48; stroke-linejoin:miter; stroke-linecap:butt; "
       id="polyline3115" />
    <!-- Line -->
    <polyline
       points="2362,2362 8503,2362 "
       style="stroke:#000000;stroke-width:48; stroke-linejoin:miter; stroke-linecap:butt; "
       id="polyline3117" />
    <!-- Line -->
    <polyline
       points="5055,2362 5055,2834 "
       style="stroke:#000000;stroke-width:48; stroke-linejoin:miter; stroke-linecap:butt; "
       id="polyline3119" />
    <!-- Line -->
    <polyline
       points="5055,7795 5055,8267 "
       style="stroke:#000000;stroke-width:48; stroke-linejoin:miter; stroke-linecap:butt; "
       id="polyline3121" />
    <!-- Line -->
    <polyline
       points="5055,5338 7653,5338 7653,5905 "
       style="stroke:#000000;stroke-width:48; stroke-linejoin:miter; stroke-linecap:butt; "
       id="polyline3123" />
    <!-- Line -->
    <polyline
       points="7653,5338 8503,5338 "
       style="stroke:#000000;stroke-width:48; stroke-linejoin:miter; stroke-linecap:butt; "
       id="polyline3125" />
    <!-- Line -->
    <polyline
       points="7653,8267 8503,8267 "
       style="stroke:#000000;stroke-width:48; stroke-linejoin:miter; stroke-linecap:butt; "
       id="polyline3127" />
    <!-- Line -->
    <polyline
       points="2267,2598 2267,7779 "
       style="stroke:#000000;stroke-width:32; stroke-linejoin:miter; stroke-linecap:butt; "
       id="polyline3129" />
    <!-- Arrowhead on XXXpoint -->
    <polyline
       points="2204 7711 2267 7963 2330 7711 2204 7711  "
       style="stroke:#000000;stroke-width:32; fill:#000000;"
       id="polyline3131" />
    <!-- Line -->
    <polyline
       points="8598,2598 8598,4850 "
       style="stroke:#000000;stroke-width:32; stroke-linejoin:miter; stroke-linecap:butt; "
       id="polyline3133" />
    <!-- Arrowhead on XXXpoint -->
    <polyline
       points="8535 4782 8598 5034 8661 4782 8535 4782  "
       style="stroke:#000000;stroke-width:32; fill:#000000;"
       id="polyline3135" />
    <!-- Line -->
    <polyline
       points="8598,5527 8598,7779 "
       style="stroke:#000000;stroke-width:32; stroke-linejoin:miter; stroke-linecap:butt; "
       id="polyline3137" />
    <!-- Arrowhead on XXXpoint -->
    <polyline
       points="8535 7711 8598 7963 8661 7711 8535 7711  "
       style="stroke:#000000;stroke-width:32; fill:#000000;"
       id="polyline3139" />
    <!-- Text -->
    <text
       x="1748"
       y="5338"
       fill="#000000"
       font-family="Times"
       font-style="italic"
       font-weight="normal"
       font-size="303"
       text-anchor="start"
       id="text3141">
U</text>
    <text
       xml:space="preserve"
       style="font-size:537.25494385px;font-style:normal;font-weight:normal;line-height:125%;letter-spacing:0px;word-spacing:0px;fill:#ff0000;fill-opacity:1;stroke:none;font-family:Bitstream Vera Sans"
       x="3121.3398"
       y="2816.5393"
       id="text3149"
       sodipodi:linespacing="125%"><tspan
         sodipodi:role="line"
         id="tspan3151"
         x="3121.3398"
         y="2816.5393"
         style="font-size:322.35293579px;font-style:normal;font-variant:normal;font-weight:normal;font-stretch:normal;fill:#ff0000;font-family:Arial;-inkscape-font-specification:Arial">I</tspan></text>
    <path
       style="font-size:medium;font-style:normal;font-variant:normal;font-weight:normal;font-stretch:normal;text-indent:0;text-align:start;text-decoration:none;line-height:normal;letter-spacing:normal;word-spacing:normal;text-transform:none;direction:ltr;block-progression:tb;writing-mode:lr-tb;text-anchor:start;baseline-shift:baseline;color:#000000;fill:#ff0000;fill-opacity:1;fill-rule:nonzero;stroke:none;stroke-width:14.31387711;marker:none;visibility:visible;display:inline;overflow:visible;enable-background:accumulate;font-family:Sans;-inkscape-font-specification:Sans"
       d="m 3348.3246,2436.2536 c -0.1071,0.078 1.614,2.6247 3.7463,5.0938 8.554,9.9054 17.0055,24.7722 20.605,37.1109 0.9149,3.1357 1.3101,6.2146 1.8733,9.4597 l -474.8543,0 0,24.7406 475.7908,0 c -0.7272,7.6657 -2.0703,15.5701 -4.6828,22.5578 -3.866,10.3407 -10.9095,21.865 -17.7954,29.8343 -2.0565,2.3801 -4.383,4.7181 -4.6829,5.0936 -0.3874,0.4853 -0.6355,0.8942 0,0.7278 18.8917,-4.9771 240.1045,-67.4296 239.7685,-67.6732 -0.2694,-0.195 -15.2172,-3.826 -32.7808,-8.7319 -17.5637,-4.9058 -70.7778,-20.0013 -118.9478,-33.4726 -48.1702,-13.4712 -87.935,-24.8171 -88.0399,-24.7408 z"
       id="path3925"
       inkscape:connector-curvature="0" />
    <text
       xml:space="preserve"
       style="font-size:537.25488281px;font-style:normal;font-weight:normal;line-height:0%;letter-spacing:0px;word-spacing:0px;fill:#ff0000;fill-opacity:1;stroke:none;font-family:Bitstream Vera Sans"
       x="4213.7432"
       y="5862.5947"
       id="text3149-7"
       sodipodi:linespacing="0%"><tspan
         sodipodi:role="line"
         id="tspan3151-4"
         x="4213.7432"
         y="5862.5947"
         style="font-size:322.35293579px;font-style:normal;font-variant:normal;font-weight:normal;font-stretch:normal;font-family:Arial;-inkscape-font-specification:Arial"
         dy="0 100">I<tspan
   style="font-size:214.90196228px"
   id="tspan6344"
   dy="66.989799">Q</tspan></tspan></text>
    <path
       style="font-size:medium;font-style:normal;font-variant:normal;font-weight:normal;font-stretch:normal;text-indent:0;text-align:start;text-decoration:none;line-height:normal;letter-spacing:normal;word-spacing:normal;text-transform:none;direction:ltr;block-progression:tb;writing-mode:lr-tb;text-anchor:start;baseline-shift:baseline;color:#000000;fill:#ff0000;fill-opacity:1;fill-rule:nonzero;stroke:none;stroke-width:14.31387711;marker:none;visibility:visible;display:inline;overflow:visible;enable-background:accumulate;font-family:Sans;-inkscape-font-specification:Sans"
       d="m 4601.8273,5984.6157 c -0.078,-0.1071 -2.6247,1.614 -5.0938,3.7463 -9.9054,8.554 -24.7722,17.0055 -37.1109,20.605 -3.1357,0.9149 -6.2146,1.3101 -9.4597,1.8733 l 0,-474.8543 -24.7406,0 0,475.7908 c -7.6657,-0.7272 -15.5701,-2.0703 -22.5578,-4.6828 -10.3407,-3.866 -21.865,-10.9095 -29.8343,-17.7954 -2.3801,-2.0565 -4.7181,-4.383 -5.0936,-4.6829 -0.4853,-0.3874 -0.8942,-0.6355 -0.7278,0 4.9771,18.8917 67.4296,240.1045 67.6732,239.7685 0.195,-0.2694 3.826,-15.2172 8.7319,-32.7808 4.9058,-17.5637 20.0013,-70.7778 33.4726,-118.9478 13.4712,-48.1702 24.8171,-87.935 24.7408,-88.0399 z"
       id="path3925-0"
       inkscape:connector-curvature="0" />
    <text
       xml:space="preserve"
       style="font-size:537.25482178px;font-style:normal;font-weight:normal;line-height:0%;letter-spacing:0px;word-spacing:0px;fill:#ff0000;fill-opacity:1;stroke:none;font-family:Bitstream Vera Sans"
       x="6142.6475"
       y="5053.8286"
       id="text3149-7-9"
       sodipodi:linespacing="0%"><tspan
         sodipodi:role="line"
         id="tspan3151-4-4"
         x="6142.6475"
         y="5053.8286"
         style="font-size:322.35290527px;font-style:normal;font-variant:normal;font-weight:normal;font-stretch:normal;font-family:Arial;-inkscape-font-specification:Arial"
         dy="0">I<tspan
   style="font-size:214.90196228px"
   id="tspan6388"
   dy="66.989998">L</tspan></tspan></text>
    <path
       style="font-size:medium;font-style:normal;font-variant:normal;font-weight:normal;font-stretch:normal;text-indent:0;text-align:start;text-decoration:none;line-height:normal;letter-spacing:normal;word-spacing:normal;text-transform:none;direction:ltr;block-progression:tb;writing-mode:lr-tb;text-anchor:start;baseline-shift:baseline;color:#000000;fill:#ff0000;fill-opacity:1;fill-rule:nonzero;stroke:none;stroke-width:14.31387711;marker:none;visibility:visible;display:inline;overflow:visible;enable-background:accumulate;font-family:Sans;-inkscape-font-specification:Sans"
       d="m 6395.9515,5119.5458 c -0.1075,0.078 1.614,2.6247 3.7463,5.0938 8.554,9.9054 17.0055,24.7722 20.605,37.1109 0.9149,3.1357 1.3101,6.2146 1.8733,9.4597 l -474.8543,0 0,24.7406 475.7908,0 c -0.7272,7.6657 -2.0703,15.5701 -4.6828,22.5578 -3.866,10.3407 -10.9095,21.865 -17.7954,29.8343 -2.0565,2.3801 -4.383,4.7181 -4.6829,5.0936 -0.3874,0.4853 -0.6355,0.8942 0,0.7278 18.8917,-4.9771 240.1044,-67.4296 239.7685,-67.6732 -0.2695,-0.195 -15.2172,-3.826 -32.7808,-8.7319 -17.5637,-4.9058 -70.7778,-20.0013 -118.9478,-33.4726 -48.1702,-13.4712 -87.935,-24.8171 -88.0399,-24.7408 z"
       id="path3925-0-8"
       inkscape:connector-curvature="0" />
    <circle
       sodipodi:ry="94"
       sodipodi:rx="94"
       sodipodi:cy="5338"
       sodipodi:cx="5055"
       transform="translate(2594.6515,-2.2867174)"
       cx="5055"
       cy="5338"
       r="94"
       style="fill:#000000;stroke:#000000;stroke-width:48"
       id="circle3091-1" />
    <circle
       sodipodi:ry="94"
       sodipodi:rx="94"
       sodipodi:cy="5338"
       sodipodi:cx="5055"
       transform="translate(2596.2809,2926.0362)"
       cx="5055"
       cy="5338"
       r="94"
       style="fill:#000000;stroke:#000000;stroke-width:48"
       id="circle3091-7" />
  </g>
</svg>
